<svg xmlns="http://www.w3.org/2000/svg" width="669.377" height="559.615" viewBox="0 0 669.377 559.615">
  <g id="_51091608132cbc81bba4d57a058e6a50" data-name="51091608132cbc81bba4d57a058e6a50" transform="translate(0 0)">
    <g id="Grupo_5" data-name="Grupo 5" transform="translate(0)">
      <path id="Caminho_26" data-name="Caminho 26" d="M112.277-420.016c-2.418,2.575-.806,5.156,5.635,9.5,9.822,6.6,22.225,18.523,22.225,21.583,0,4.671-23.031,8.216-45.255,7.089-14.978-.806-20.135-.485-26.9,1.769-7.9,2.739-8.374,2.739-16.105-.642-12.56-5.313-14.814-8.858-15.948-23.194-.963-13.21-2.9-15.3-7.568-8.21-5.314,8.053-6.441,16.911-3.545,26.9,3.866,13.687,10.955,22.061,24.643,28.829,13.687,7.09,13.045,9.5-2.739,9.5-12.4,0-20.777,3.381-30.441,12.082-7.889,7.076-8.21,10.456-1.769,15.934,5.635,4.672,13.045,7.089,25.448,8.538,4.508.485,8.374,1.448,8.374,2.09,0,1.291-11.754,18.2-17.075,24.642-3.381,4.03-3.866,6.284-3.866,17.874,0,14.814,2.1,19.486,9.179,20.777,2.575.321,7.889,2.09,12.075,3.7,6.6,2.418,8.858,2.575,16.105,1.127,8.216-1.769,8.695-1.612,14.336,2.739,4.829,3.866,7.732,4.672,19.65,5.635l14.008,1.127,9.022,17.4C133.853-189.4,141.257-178.447,154.3-164.6c8.695,9.016,13.366,16.105,21.1,31.241,13.045,25.927,26.091,46.382,35.113,55.726l7.411,7.568-.963,13.045c-.806,10.307-.321,15.941,2.254,27.054,3.06,12.4,3.381,16.911,2.418,38.173-.642,13.209-1.769,28.829-2.739,34.628-.806,5.8-2.254,15.3-2.9,21.262-1.127,8.858-2.418,12.082-6.441,16.59-2.739,3.224-4.993,6.762-4.993,7.9s-1.448,3.381-3.381,5.15c-4.187,3.866-9.5,14.015-9.5,18.2,0,3.545,1.769,4.351,13.851,5.8,7.889.963,19.486-.485,32.852-4.023,5.956-1.612,6.6-2.254,9.022-10.948,2.575-8.374,2.575-9.5,0-13.687-2.418-4.351-2.418-4.829.806-9.5a23.421,23.421,0,0,1,8.858-7.089c3.06-1.284,5.478-2.739,5.478-3.06,0-.485-1.933-4.508-4.351-9.022l-4.187-8.217.963-37.2c.642-25.769,1.769-39.942,3.381-45.419a111.214,111.214,0,0,0,2.9-12.888c.485-4.672.806-4.829,10.627-6.12A113.338,113.338,0,0,0,292.5-54.435L302.97-58.3l3.7,5.956A101.358,101.358,0,0,1,314.24-36.24a64.168,64.168,0,0,0,10.47,17.717c5.15,5.8,9.022,13.851,18.038,36.561,11.433,28.829,11.6,29.314,11.6,44.128,0,18.2-2.1,23.195-16.269,39.457-5.314,6.119-11.6,14.657-13.687,18.844l-3.866,7.568,4.993,4.03c8.052,6.762,15.3,8.053,31.889,5.956,19-2.418,22.71-3.866,22.71-8.695,0-2.254,1.127-7.089,2.418-10.791a56.081,56.081,0,0,0,2.418-15.142c.164-9.343,2.1-13.687,8.538-18.68,4.672-3.7,5.635-9.18,2.575-14.821-1.612-3.06-7.411-22.546-18.523-63.293a208.582,208.582,0,0,1-5.478-28.986c-.806-8.053-2.9-18.523-4.508-23.352a120.633,120.633,0,0,1-4.023-14.493L362.4-65.868l23.837-.164c21.1,0,25.285-.485,38.173-4.508,8.052-2.418,20.292-6.926,27.381-9.985,7.09-3.224,14.015-6.12,15.463-6.6,1.448-.321,10.628,3.866,20.456,9.5,14.814,8.373,18.2,10.948,19.329,14.814,1.776,6.6,4.829,7.089,6.926,1.127,2.254-6.441,4.351-6.277,7.247.806,2.9,6.926,5.963,6.441,7.09-.963.642-4.508,1.769-5.635,6.12-6.762,4.508-1.284,6.12-.806,10.143,2.739,6.6,5.478,7.889,5.157,7.889-2.418,0-5.956,1.127-7.568,12.881-19.329,7.089-7.09,13.209-12.881,13.53-12.881s2.254,6.441,4.023,14.336c4.03,17.075,4.187,33.016.963,62.972-3.381,30.919-5.314,39.942-9.821,47.83A38.527,38.527,0,0,0,569.2,40.747c-1.291,14.814-1.769,15.62-11.918,26.9C543.6,82.786,539.731,91.48,545.045,95.831c1.127.963,6.284,2.575,11.276,3.545,10.47,2.1,24.8-.164,33.016-5.15,4.672-2.739,4.993-3.709,4.993-12.239,0-12.239,5.635-24.479,13.366-29.314,3.06-1.933,6.12-4.508,6.6-5.8.485-1.448-.164-7.732-1.612-14.172-4.023-18.68-3.381-35.919,2.418-58.143,5.956-22.867,9.016-30.12,17.717-42.36,3.7-4.992,6.6-9.821,6.6-10.948,0-.97-2.9-9.18-6.441-18.2-3.545-8.858-6.441-18.844-6.441-22.061,0-5.8,5.8-37.2,7.411-39.778.485-.642,3.224,3.545,6.284,9.5,4.672,8.695,5.635,12.4,5.635,20.613,0,22.546,12.724,53.144,27.054,64.905,8.695,7.247,8.537,5.478-.157-4.187-6.6-7.246-13.687-18.359-16.269-25.284-.806-2.254.97-1.127,5.8,3.224,5.956,5.635,6.277,5.635,1.769.806-5.157-5.635-9.5-14.494-7.247-14.494.806,0,2.9,2.739,4.829,6.12a37.289,37.289,0,0,0,7.089,9.343c3.7,3.06,3.7,3.06,1.127-.157-2.739-3.224-9.5-15.948-9.5-17.717,0-2.739,3.7,1.933,7.246,8.859,2.254,4.351,4.829,8.373,5.963,9.015.963.642.642-.485-.806-2.739-1.448-2.09-2.739-4.993-2.739-6.6,0-1.448-2.739-7.09-6.284-12.4-7.766-12.082-8.736-17.4-7.445-39.621.963-15.463.642-18.844-2.254-27.382-5.314-14.814-8.859-45.576-7.247-62.808.806-8.053,1.291-28.986,1.291-46.7-.164-28.829-.485-33.016-3.381-39.457-1.933-4.029-4.993-9.022-6.926-11.112-4.508-4.671-18.2-11.112-25.769-12.082a77.254,77.254,0,0,1-12.724-3.224c-3.866-1.448-11.918-2.575-18.038-2.575-22.225,0-74.406,8.858-115.8,19.486-32.852,8.538-48.957,9.5-134.475,8.374-58.3-.806-70.54-.485-88.578,1.769-14.336,1.933-23.031,2.418-27.381,1.291-6.762-1.448-6.926-1.776-4.829-11.112,1.127-4.672.642-5.478-4.187-8.538a95.42,95.42,0,0,0-15.62-6.441c-8.216-2.575-11.433-2.9-17.717-1.448-17.232,3.545-19.486,3.7-20.613.806-.642-1.933.642-4.508,3.7-7.889a77.993,77.993,0,0,0,7.411-9.179c6.6-9.665.485-32.374-10.627-40.427C143.361-414.866,115.337-423.076,112.277-420.016Zm524.863,98.235c2.9,6.926,4.351,28.023,2.739,40.9-1.291,10.306-1.448,9.985-3.381-14.493-1.448-17.717-2.9-26.733-5.157-31.083l-2.9-6.284,3.224,3.06A24.034,24.034,0,0,1,637.141-321.781Z" transform="translate(-9.996 420.676)"/>
    </g>
  </g>
</svg>
