<svg xmlns="http://www.w3.org/2000/svg" width="785.654" height="527.188" viewBox="0 0 785.654 527.188">
  <g id="_44697" data-name="44697" transform="translate(-0.16 858.944)">
    <path id="Caminho_31" data-name="Caminho 31" d="M166.189-857.751c-2.517.8-3.991.982-4.727.553-1.719-.921-5.034-.675-12.708.921-9.147,1.9-10.007,2.272-13.813,5.587a44.686,44.686,0,0,1-6.692,4.6,14.6,14.6,0,0,0-5.218,4.359c-1.535,2.394-1.6,2.394-5.464,2.394h-3.929v-2.21c0-1.78-.184-2.149-.982-1.842-1.6.614-10.068,1.228-10.068.737a7.192,7.192,0,0,1,.614-1.658c.8-1.473.43-1.473-5.894-.184a24.246,24.246,0,0,1-7.428.614c-2.21-.307-3.315-.061-6.262,1.473l-3.561,1.78-.43,4.482c-.307,3.684-.614,4.666-1.78,5.4a34.069,34.069,0,0,0-3.377,2.824c-1.658,1.658-1.9,2.21-1.412,3.438.737,1.965.123,3.008-4.911,7.981-6.323,6.262-13.506,14.673-14.427,16.821a36.122,36.122,0,0,0-1.473,6.139,30.152,30.152,0,0,1-3.131,8.963,33.032,33.032,0,0,0-2.763,7.49c-.43,2.885-.43,2.947-9.761,13.875-2.333,2.824-5.771,7.183-7.613,9.761-1.78,2.578-7.735,9.209-13.261,14.8C6.753-729.5,5.526-727.967,3.254-723.3.43-717.469-.491-712.435.614-709.058c.921,2.885,4.666,6.323,9.332,8.656,3.377,1.719,3.929,2.272,4.666,4.543,1.719,5.157,5.955,7.551,15.225,8.595a9.591,9.591,0,0,1,4.113,1.228c1.535,1.351,5.218,1.6,10.682.614,6.937-1.289,9.025-2.394,12.892-7.183,1.842-2.272,4.113-4.482,5.034-4.85,3.991-1.535,4.85-1.473,8.534.8,2.947,1.842,4.543,2.333,8.9,2.885,5.218.614,5.4.614,7.674-.921,3.254-2.271,6.078-2.087,9.454.43,5.587,4.3,7.244,4.42,12.4,1.351a15.911,15.911,0,0,1,4.911-2.149c1.965,0,13.445,3.99,19.154,6.692,6.63,3.07,17.374,9.823,18.725,11.726.553.859,2.64,5.4,4.6,10.13,4.359,10.56,7.122,16.146,15.839,31.924,9.332,17.067,15.594,29.591,16.33,32.845.368,1.535,1.228,5.525,1.965,8.9,3.254,15.164,13.506,36.1,23.022,47.027a107.905,107.905,0,0,0,10.989,9.823c8.779,6.876,16.944,14.55,18.725,17.435a32.209,32.209,0,0,1,2.149,4.911c4.666,14,5.525,24.189,3.377,39.475-1.351,9.454-1.351,10.437-.737,26.89.614,14.55.921,18.111,2.271,23.82,1.842,7.981,1.9,9.516.368,15.594-.675,2.64-2.333,10.375-3.806,17.313l-2.578,12.585-3.561,3.991a45.651,45.651,0,0,0-5.894,8.288,63.183,63.183,0,0,1-6.016,8.9c-2.087,2.517-4.911,6.262-6.262,8.288-1.412,2.026-3.377,4.789-4.42,6.078-1.473,1.842-1.78,2.578-1.228,3.192,1.965,2.394,5.525.123,10.068-6.2,2.824-4.052,4.175-4.85,4.85-3.008.614,1.535-.982,3.5-5.771,7.306a30.761,30.761,0,0,0-5.28,4.973c-.921,1.412-.921,1.6.061,2.7a7.82,7.82,0,0,0,3.929,1.6c3.315.491,27.627-.8,32.6-1.719,4.6-.859,10.007-3.131,12.831-5.341a8.7,8.7,0,0,1,3.684-1.9c.737,0,1.289-.123,1.289-.246s-.737-1.78-1.6-3.745c-1.166-2.517-1.535-4.113-1.289-5.771a5.3,5.3,0,0,0-.553-3.438c-1.412-1.9-.982-2.64,2.21-4.3,5.218-2.64,5.4-6.385.614-11.051-1.351-1.351-2.456-3.008-2.456-3.745s.859-5.4,1.842-10.437c1.044-5.034,2.149-11.665,2.456-14.8.614-6.016,1.78-9.454,5.034-15.225,1.105-2.026,2.7-5.157,3.5-7,2.824-6.692,5.157-26.276,4.3-36.283-1.289-14.427-1.351-15.594-.246-19.646.982-3.929,6.876-17.19,7.613-17.19.184,0,2.333,9.393,4.727,20.873,3.745,17.927,4.3,21.18,3.745,23.206s-.43,2.824.982,5.832a46.423,46.423,0,0,0,8.718,12.094c4.543,4.175,10.805,16.023,13.568,25.723,1.412,4.973,1.6,6.508,1.289,11.358-.307,5.832-3.377,16.7-5.157,18.479-.491.491-3.254,4.42-6.139,8.718-4.789,7.122-8.656,14.182-9.7,17.8-.491,1.78,1.289,3.561,4.42,4.42,3.254.921,11.849.8,17.681-.246a57.6,57.6,0,0,1,8.042-.921c7.121,0,17.681-5.157,19.216-9.27.43-1.166,1.166-3.008,1.658-4.113a11.627,11.627,0,0,0-.859-10.621,25.062,25.062,0,0,0-2.763-3.561,3.323,3.323,0,0,1-1.044-2.333c0-1.166.553-1.719,2.7-2.578,2.947-1.289,3.438-2.087,3.438-5.648s-1.228-5.894-5.4-10.5c-5.648-6.2-6.139-8.718-6.876-36.406-.307-11.173-.859-21.242-1.105-22.408-.614-2.456-3.377-8.1-7.06-14.427l-2.456-4.236L336.8-497.071c-1.105-13.506-1.9-24.68-1.78-24.8.307-.368,15.655-4.3,24.8-6.323,8.718-1.965,9.27-2.026,23.636-1.965,23.575,0,57.954,3.192,82.573,7.674,9.761,1.719,15.9,1.351,24.864-1.535,9.884-3.192,16.515-4.666,22.715-5.034,5.525-.368,5.525-.368,10.866,2.149,4.6,2.149,5.525,2.824,6.262,4.666,1.78,4.236,2.087,7.92,1.105,14.12-.859,5.709-.859,6.016.307,7.551,1.719,2.272,4.113,2.947,6.078,1.658,2.149-1.412,2.7-3.315,3.315-10.928.491-7.121,1.351-9.025,3.99-9.025,2.394,0,3.131,1.535,2.272,4.666-1.658,6.139-.553,12.4,2.763,15.839,3.192,3.254,5.1,2.824,5.1-1.228a43.445,43.445,0,0,1,1.78-7.121c.982-3.131,1.965-6.63,2.21-7.674.675-3.5,5.587-6.2,7.551-4.3.8.859.859,1.535.246,4.85-1.412,7.735-1.6,13.568-.491,15.655,1.105,2.149,2.824,3.008,4.482,2.149,1.842-1.044,4.359-6.876,4.789-11.173a39.783,39.783,0,0,1,1.658-7.428c1.166-3.315,1.351-3.5,3.684-3.868,3.131-.491,4.175.307,4.175,3.315a28.062,28.062,0,0,0,1.228,6.323c1.351,4.3,3.377,6.569,5.832,6.569,2.517,0,3.438-1.842,3.929-8.411.368-4.727.8-6.692,1.842-8.349,1.535-2.517,4.666-5.341,5.832-5.341,1.535,0,6.262,11.542,8.9,21.672a145.316,145.316,0,0,1,3.377,57.34c-1.78,12.156-6.569,27.811-10.928,36.283a85.765,85.765,0,0,0-4.113,9.639c-2.885,8.411-5.709,14.059-8.349,17.006a49.977,49.977,0,0,0-4.789,6.323,71.974,71.974,0,0,1-5.525,7.367c-6.508,7.49-7.735,10.5-5.034,12.217,1.228.859,7.674,2.21,14.611,3.131,3.868.491,7.49-.368,16.576-4.052l7.735-3.131.982-4.482c.553-2.456,1.289-7,1.658-10.191.614-5.157.859-5.894,2.333-7,4.911-3.684,10.007-8.534,10.314-9.884.246-.921-.123-3.622-.921-6.385a39.828,39.828,0,0,1-1.289-6.63c0-1.044,1.289-4.6,2.824-7.92,9.27-19.768,23.575-53.411,23.575-55.376a.631.631,0,0,1,.614-.675c1.044,0,2.947,7.674,3.99,16.023,1.351,11.358,1.9,28.916,1.412,45.369-.43,15.348-1.658,25.048-3.868,29.837-1.842,4.113-7.613,12.647-13.506,19.891-8.042,9.946-10.928,15.778-9.884,19.891.614,2.517,2.947,2.087,6.508-1.228,1.719-1.6,3.07-2.7,3.07-2.456a25.786,25.786,0,0,1-1.6,3.5A11.885,11.885,0,0,0,641.734-335c.123.123,5.28.737,11.542,1.473,10.437,1.166,11.726,1.228,15.594.368a21.608,21.608,0,0,0,5.71-1.9c1.842-1.166,3.377-4.6,3.5-7.8.061-2.087.246-2.333,1.473-2.087.737.123,1.351.184,1.351.184,0-.061-.553-4.666-1.228-10.191a103.388,103.388,0,0,1-.982-10.866c.246-.614.982-.491,3.131.553,2.517,1.228,2.885,1.289,3.745.368,1.6-1.6,1.658-5.832.246-12.156-2.026-8.84-2.149-14.734-.675-27.32.675-6.078,1.535-15.594,1.9-21.18,1.412-21.058,3.806-36.221,7.49-46.535,2.271-6.569,2.087-8.411-1.412-13.936a41.85,41.85,0,0,1-6.078-16.453c-.982-6.139-.553-11.173,1.78-20.505a103.931,103.931,0,0,0,2.517-15.041c1.658-18.97,5.894-27.013,16.944-32.108,6.63-3.131,9.516-6.016,16.944-17.19,10.559-15.839,18.54-35.669,25.355-62.62l2.026-7.981.061,11.665c.061,13.445-.491,18.663-2.947,28.916a86.39,86.39,0,0,0-2.21,11.971c-.491,4.85.737,24.557,2.824,46.842.675,7.551,1.105,14.8.859,16.576-.8,6.569-2.21,12.892-3.377,15.532a14.754,14.754,0,0,0-1.228,3.929,89.569,89.569,0,0,0,2.456,9.454c4.973,17.067,5.4,22.408,2.517,33.52-2.7,10.314-2.7,10.437-.614,6.078,5.648-11.726,8.288-21.978,7.8-29.9a23.282,23.282,0,0,1-.123-4.482c.491,0,2.7,4.973,3.929,8.9,1.228,4.052,1.289,4.911.8,15.041-.553,12.34-.368,18.418.737,21.61.737,2.149,6.323,12.156,6.815,12.156.123,0-.061-.675-.368-1.535a52.312,52.312,0,0,1-2.456-11.849,57.471,57.471,0,0,1,1.965-9.577l2.026-7.306.43,3.622a41.969,41.969,0,0,1-.491,8.841c-1.105,6.692-1.105,7.981.061,7.981,1.228,0,2.578-2.21,3.315-5.587a73.84,73.84,0,0,1,2.333-7.367l1.719-4.543.553,2.333c.307,1.228.859,2.21,1.166,2.087a11.185,11.185,0,0,0,2.517-2.824c1.842-2.517,1.9-2.947,2.087-9.454.307-9.086-.737-17.128-2.947-23.268-1.535-4.175-6.2-13.015-10.375-19.523-.737-1.105-.061-.8,2.394,1.228,1.842,1.535,4.236,3.684,5.341,4.789l2.087,2.026-.43-1.719c-.921-3.868-1.9-5.157-10.375-13.384-11.542-11.3-11.971-12.156-12.647-25.355-.307-5.28-.982-13.568-1.535-18.295-1.044-9.147-1.044-9.454,1.289-26.644.43-3.561,1.412-14.059,2.149-23.329.675-9.27,1.6-18.541,1.9-20.566.982-5.341.859-87.668-.061-91.229a29.248,29.248,0,0,0-2.517-5.894,14.2,14.2,0,0,1-1.78-5.034c0-2.763-3.99-18.049-5.709-21.794-5.28-11.542-16.023-15.778-44.387-17.558-5.034-.307-12.892-.982-17.435-1.535-23.083-2.578-74.9.921-124.012,8.349-8.963,1.351-18.172,2.763-20.566,3.131-2.7.43-10.253.491-20.566.246-16.392-.368-26.644-.921-71.031-3.745-13.261-.859-25.908-1.535-27.995-1.535-8.042,0-27.135-3.192-48.132-7.981-19.646-4.543-46.658-8.595-71.4-10.744-6.385-.552-20.689-1.1-32.845-1.289-23.575-.307-32.477-1.044-47.272-3.99a267.3,267.3,0,0,1-32.047-8.349c-8.349-2.7-9.577-3.315-8.165-4.175.368-.184.614-1.473.614-2.763,0-2.026.246-2.517,1.658-3.192,2.333-1.105,3.315-5.894,1.78-8.472-1.166-2.026-1.289-7.367-.184-8.656a8.557,8.557,0,0,1,2.456-1.964,3.171,3.171,0,0,0,1.658-2.885c0-2.026-1.6-3.376-5.1-4.359-1.289-.307-2.149-.859-1.965-1.167.553-.859-3.929-1.842-8.718-1.842-2.578,0-4.482-.245-4.482-.614C174.416-859.347,170.118-859.04,166.189-857.751Z" transform="translate(0)"/>
  </g>
</svg>
