<svg id="OGexJI_1_" xmlns="http://www.w3.org/2000/svg" width="490.357" height="410.596" viewBox="0 0 490.357 410.596">
  <g id="Grupo_4" data-name="Grupo 4">
    <path id="Caminho_25" data-name="Caminho 25" d="M115.06,561.606c6.581,23.846,11.7,46.793,7.068,70.639a169.4,169.4,0,0,0-2.194,48.367,74.555,74.555,0,0,1-3.412,31.045c-5.362,16.872,2.194,31.72,19.5,39.369,3.412,1.574,7.068,2.7,10.237.45s5.119-1.35,8.043-.225c6.093,2.25,10.481-.9,7.556-6.074-7.312-13.048-3.169-26.771-4.875-40.044a83.837,83.837,0,0,1,5.606-41.619,73.8,73.8,0,0,0,5.85-32.395,66.071,66.071,0,0,1,8.043-35.095c.731-1.575,1.219-4.049,3.656-3.374.975.225,1.95,2.475,2.194,3.824,1.219,4.949,1.462,10.348-1.95,14.173-9.018,9.9-6.825,21.147-5.606,32.395.975,8.324,3.412,16.648,4.875,24.971,1.462,8.773,3.169,17.772-1.95,26.321a5.374,5.374,0,0,0-.975,3.6c5.362,18.222,3.412,39.819,26.567,49.942,5.118,2.25,10.481,6.974,13.649-2.025.731-1.8,1.95-.9,3.168-.9,9.262,1.125,10.724-.45,8.043-9-4.387-13.948-8.287-28.121-10.237-42.743-1.706-12.373-1.706-24.746,3.412-36.444,6.093-14.173,10.968-28.346,12.187-43.644.731-10.8,7.312-17.1,18.524-20.247,10.481-2.924,20.718-3.6,31.2-1.35,13.649,3.149,27.3,6.749,41.679,7.649,7.312.45,12.918,6.3,11.212,12.823-4.875,18.9-.975,37.794.244,56.691,1.219,17.1-.731,33.745-4.875,50.392a28.143,28.143,0,0,0,4.631,24.3c5.606,8.1,11.456,9.449,20.961,5.624,1.462-.675,2.437,0,3.9.45,10.481,3.149,16.574-1.125,13.893-11.023-2.437-9.9-2.681-19.8-3.9-29.7-1.462-12.6.731-24.521,5.606-36.219,6.093-14.848,12.431-29.471,12.674-45.893,0-9.223,3.656-10.573,12.431-6.3.487.225.975.675,1.462.675,12.674-.675,9.749,7.424,9.506,13.948-.975,19.572,1.706,38.919,0,58.491-.731,7.874-1.95,15.747-3.412,23.622-2.681,13.723,1.462,20.7,14.868,26.77,2.925,1.35,6.093,2.925,8.531.675,3.169-2.924,5.85-1.8,9.018-.45,3.412,1.35,7.068,2.025,10.237-.45,3.169-2.7,2.194-6.074,1.462-9.449-1.706-6.749-3.656-13.5-5.118-20.246-2.925-13.273-3.168-26.321.975-39.594a70.19,70.19,0,0,0,3.656-21.147c-.488-30.82,10.237-60.066,13.649-90.436,1.219-12.148-.487-23.846-3.412-35.769-2.925-12.373-4.387-25.2-6.094-38.019-.487-4.275.731-8.1,5.362-10.349s6.581-5.849,6.825-10.573a61.86,61.86,0,0,1,11.943-33.07c7.312-10.123,6.337-21.372,6.093-32.845-.244-12.6.487-13.048,13.893-13.048a114.519,114.519,0,0,0,12.431-.225c19.255-1.575,31.686-15.522,30.223-33.52-.731-10.123-6.581-13.5-16.33-8.774-10.968,5.4-21.449,11.7-33.148,15.748-7.556,2.7-12.674,2.475-16.087-5.174-1.95-4.274-6.093-6.524-10.481-8.549-22.18-9.673-44.116-7.424-66.3.225-6.581,2.249-9.749,7.649-11.212,13.5-.975,4.724-3.656,5.4-8.287,4.5a78.925,78.925,0,0,1-21.693-7.424,57.776,57.776,0,0,0-31.442-5.849c-8.775.9-10.724,3.825-7.312,11.248,10.724,24.071,29.248,33.295,56.059,27.671,1.95-.45,4.387-1.8,6.093.45s.731,4.5-.244,6.524c-6.337,11.923-15.112,20.247-30.467,22.272C325.4,425.5,297.862,427.3,270.32,430.9c-19.011,2.25-37.779,1.35-56.547,1.124a154.649,154.649,0,0,0-70.44,15.073c-19.012,9.224-29,23.172-29.492,42.968-.244,5.624-.244,11.249-.487,16.873-.244,15.972-5.362,30.595-18.768,41.393-27.055,21.6-37.048,50.392-40.7,81.662-2.194,17.772,6.581,29.7,25.349,34.419a20.4,20.4,0,0,0,8.287.45c1.706-.225,3.412-.674,4.144-2.25.731-1.8-.731-2.924-2.194-3.6-6.825-2.925-8.287-8.549-8.043-14.848,0-6.749-2.681-13.048-4.875-19.347-4.387-13.048-1.463-24.746,7.312-35.544C93.124,579.828,104.823,571.73,115.06,561.606Z" transform="translate(-53.552 -342.148)"/>
  </g>
</svg>
