<svg xmlns="http://www.w3.org/2000/svg" width="571.183" height="383.112" viewBox="0 0 571.183 383.112">
  <g id="_145928" data-name="145928" transform="translate(-0.081 792.105)">
    <path id="Caminho_30" data-name="Caminho 30" d="M498.469-791.474c.937,1.016.58,3-1.919,10.254-1.339,3.869-2.454,7.158-2.454,7.3a4.18,4.18,0,0,0,1.651.484c5.043.919,12.9,5.32,16.958,9.48,1.964,1.983,2.588,2.37,4.061,2.37,2.588,0,4.284-1.5,9.282-8.464,5.043-6.965,6.382-8.029,7.81-6.094a4.749,4.749,0,0,1,.848,2.322c0,1.548-4.106,11.946-6.025,15.235-4.775,8.174-6.471,11.414-6.471,12.237,0,.532,1.25,2.467,2.811,4.256a18.651,18.651,0,0,0,6.114,5.078c3.927,2.128,4.463,3,5.8,9.673.982,5.175,1.919,7.3,4.552,10.544a76.067,76.067,0,0,1,4.775,6.675c1.562,2.418,3.57,5.369,4.463,6.578a70.578,70.578,0,0,1,4.24,7.642c2.321,4.788,3.3,6.239,8.97,12.817,3.481,4.063,6.56,7.884,6.872,8.416.759,1.6.58,3.918-.625,9.141-1.7,7.255-5.578,12.769-11.335,16.106-3.392,1.935-6.114,1.983-10,.242-3.972-1.79-7.9-1.983-13.745-.725-4.106.919-5.311,1.016-8.7.58a73.016,73.016,0,0,1-15.753-3.724c-4.195-1.6-4.864-1.451-12.54,2.467-8.613,4.353-14.28,6-25.437,7.3-12.272,1.4-16.021,5.224-26.24,26.6-2.678,5.562-5.489,11.318-6.248,12.817-1.339,2.515-3.882,8.706-10.309,25.1-3.972,10.06-4.284,10.641-7.631,14.607A40.459,40.459,0,0,1,404.4-551.915a34.765,34.765,0,0,0-3.927,1.5,9.63,9.63,0,0,0,1.74,1.983c9.684,9.335,12.5,12.14,17.315,17.267,5.8,6.143,10.487,12.962,13.076,19.008,1.25,2.805,1.339,3.434,1.16,6.868a17.847,17.847,0,0,1-1.83,7.545c-3.079,7.013-5.444,10.157-15.218,20.556-5.668,6.046-11.38,12.672-14.548,16.928-13.254,17.7-27.133,31.39-34.005,33.566-.4.145-1.473,1.79-2.41,3.724-2.41,4.982-6.872,9.77-10.041,10.834-2.99.967-8.077,1.5-8.97.919-.535-.387.089-3.047,3.749-16.638,2.41-8.9,4.641-16.445,5-16.832a18.164,18.164,0,0,1,5-1.838,19.3,19.3,0,0,0,4.953-1.79c.491-.484.357-1.306-.58-4.353-1.785-5.8-.937-7.5,5.087-9.818,4.016-1.548,4.6-1.935,8.791-5.417a49.4,49.4,0,0,0,8.434-8.512c2.276-3,9.015-16.59,9.862-19.83,1.83-6.868-.625-13.3-6.649-17.46-2.454-1.644-10.576-5.852-20.573-10.641a82.12,82.12,0,0,1-12.719-7.545c-6.872-4.885-9.639-7.739-12.138-12.43l-1.428-2.709-4.463,9.867a121.172,121.172,0,0,1-9.818,18.137,455.384,455.384,0,0,0-28.829,52.042c-4.73,10.5-6.6,16.638-7.81,25.731-.491,3.676.357,6.094,3.749,10.3,1.607,2.031,3.526,4.5,4.195,5.465a10.385,10.385,0,0,0,3.436,2.805,16.894,16.894,0,0,1,8.7,11.85l.312,1.838H281.808l-.937-1.112c-3.035-3.482-3.972-11.173-1.964-16.009,1.428-3.434,1.339-3.676-1.25-3.676-2.856,0-4.6-.967-5.355-2.95-.848-2.128.312-7.932,5.087-26.311,4.284-16.3,9.238-37.194,10.577-44.5,1.74-9.383,4.061-18.621,8.524-33.615.759-2.515,2.454-7.062,3.749-10.109a50.269,50.269,0,0,0,2.276-5.659c-.089-.1-9.862-.242-21.733-.29l-21.644-.145-7.363,1.548a152.932,152.932,0,0,1-40.7,3.482c-11.424-.677-15.485-1.306-38.736-6.239l-5.132-1.112-3.57,2.805c-1.964,1.5-5.043,3.628-6.828,4.692-1.74,1.064-3.213,2.177-3.213,2.515,0,.29.491,3.676,1.116,7.448,1.383,8.416,1.383,8.754.089,10.786a5.3,5.3,0,0,1-8.524.677,43.915,43.915,0,0,1-3.124-7.545c-1.2-3.579-2.321-6.626-2.5-6.868-.268-.339-6.069.774-6.56,1.258a32.63,32.63,0,0,0,.491,5.756c1.16,8.8.937,11.173-1.25,13.059-1.2,1.064-5.578,1.161-7.408.145a4.122,4.122,0,0,1-1.74-2.273c-.357-1.354-2.722-13.929-2.722-14.655a9.629,9.629,0,0,0-3.079-.242h-3.124l-.312,2.273c-.491,3.531.134,18.331.937,22.394a47.888,47.888,0,0,0,1.874,6.529c1.83,4.788,6.917,15.526,10.71,22.732,1.964,3.724,4.15,7.98,4.82,9.431,3.436,7.4,7.5,12.188,19.948,23.506,5.221,4.74,10.844,10.06,12.5,11.85,3.258,3.531,6.872,9.141,8.122,12.672.714,2.031,1.116,2.418,3.972,4.063a26.364,26.364,0,0,1,10.086,10.689l1.383,3-15.932-.1-15.976-.145-4.507-9.141c-2.5-5.03-4.864-9.335-5.221-9.528-.446-.29-1.25.1-2.588,1.258a7.094,7.094,0,0,1-2.811,1.693c-.937,0-4.954-4.3-7.944-8.512-1.071-1.548-4.24-6.965-7.006-11.995-9.818-17.9-9.773-17.847-26.062-31-7.229-5.852-13.477-11.221-13.879-11.9-.357-.677-2.187-8.222-4.016-16.686-2.008-9.431-3.838-16.88-4.686-19.056-1.83-4.643-4.195-9.19-5.311-10.35-.893-.822-.937-.822-1.562.29a90.537,90.537,0,0,1-6.872,11.173c-1.428,1.935-5.087,6.288-8.167,9.77-6.069,6.82-8.256,9.963-11.023,15.961-4.061,8.754-6.471,17.412-8.791,31.438-1.874,11.463-2.142,14.848-1.607,20.266.357,3.966.58,4.595,2.41,7.5,2.454,3.869,2.945,5.272,2.945,8.174,0,2.225.089,2.418,4.016,6.626,4.329,4.643,5.4,6.723,6.025,11.753l.312,2.515-15.53-.1-15.575-.145-1.74-3.289c-2.454-4.595-2.544-6.481-.58-11.269a36.128,36.128,0,0,0,1.874-5.852c.268-1.79.134-2.176-.8-3.241a7.767,7.767,0,0,0-3.615-1.741c-2.1-.484-2.633-.774-3.213-2.031-.759-1.548-.714-1.79.446-8.126,1.562-8.174,4.82-28.826,5.846-36.758.58-4.643,1.383-10.786,1.785-13.639.714-5.078.714-5.224-.4-12.333-2.187-13.881-3.481-25.828-3.3-30.664.134-4.5.223-4.837,2.455-9.673a100.342,100.342,0,0,0,6.426-18.815c.714-3.241.982-6.433,1.16-15.042.223-9.48.134-11.753-.669-17.412a244.878,244.878,0,0,1-2.321-25.1c-.268-4.933-.759-11.8-1.16-15.235-1.7-16.009-1.83-17.944-1.2-23.361,1.294-12.333,0-6.385-2.544,11.511-2.5,17.605-3.124,23.7-3.124,32.405,0,4.111-.357,13.252-.759,20.314-.8,13.978-.848,32.841-.089,39.515.893,8.222,1.026,19.782.268,23.8a159.513,159.513,0,0,0-2.856,20.12c-.268,5.611-.8,6.529-3.927,7.5a6.222,6.222,0,0,1-6.56-1.451L.081-510.466V-518.2c0-4.3.312-10.4.714-13.736.669-5.707.669-10.205-.089-19.733-.223-2.95-.134-3.337,1.294-5.9a49.526,49.526,0,0,0,2.99-7.5l1.428-4.74-.223-11.124c-.134-6.143-.536-13.3-.937-16.009-.893-6.433-1.2-79.514-.4-89.478C6.775-709.4,14-723.374,31.319-737.594c6.828-5.562,14.771-9.528,26.508-13.156,7.676-2.37,11.469-2.805,25.035-2.805,11.067,0,12.585.1,18.966,1.258a354.489,354.489,0,0,0,39.494,4.692c3.927.29,11.737.871,17.4,1.306,10.086.725,35.88,3.144,42.841,4.063,1.964.242,7.586.774,12.5,1.209,8.7.774,9.1.774,16.958-.242,5.4-.677,12.942-1.161,23.117-1.451,19.413-.58,25.66-1.112,47.17-4.111a342.9,342.9,0,0,1,39.048-3.676,197.388,197.388,0,0,1,35.255,1.064c29.23,3.144,48.152,3.144,61.138,0,11.335-2.757,25.794-8.561,29.989-12.043l1.026-.822-1.116-2.563c-2.5-5.852-2.142-6.142,15.039-12.672a33.728,33.728,0,0,0,5.534-2.467c.446-.387,2.365-2.854,4.373-5.514C496.818-792.49,497.22-792.828,498.469-791.474Z" transform="translate(0)"/>
  </g>
</svg>
