<svg xmlns="http://www.w3.org/2000/svg" width="1048" height="733.79" viewBox="0 0 1048 733.79">
  <g id="Grupo_7" data-name="Grupo 7" transform="translate(1959 -198.503)">
    <g id="Grupo_6" data-name="Grupo 6" transform="translate(-1873.267 198.503)">
      <path id="Caminho_27" data-name="Caminho 27" d="M447.313-1.234C835.855-1.234,886.132,318.4,886.132,318.4S822.046,11.594,447.313,11.594C57.2,11.594,7.1,324.994,2.242,318.4-1.439,313.408,58.772-1.234,447.313-1.234Z" transform="translate(-2.089 1.234)" fill="#ffca39"/>
    </g>
    <g id="nW7Kdf_1_" transform="translate(-1728.375 400.536)">
      <g id="Grupo_3" data-name="Grupo 3">
        <path id="Caminho_24" data-name="Caminho 24" d="M124.689,213.9c-4.717,16.865-1.443,33.991,0,50.961,1.11,13.274.277,26.6,2.275,39.873,1.11,7.444-2,14.471-7.214,22.539-.888-12.6-4.051-23.112-1.5-34.356,4.051-17.594.832-35.136-1.776-52.679-1.72-11.4-2.775-22.9-1-34.46,2.22-14.315,13.541-24.569,28.969-25.767,8.768-.677,17.37.729,26.083,1.405,31.3,2.5,62.488,4.425,94.01.781,23.919-2.759,48,.052,71.812,3.227,2.386.312,4.773.573,7.159.885.777-3.436-4.995-5.674-1.5-8.537,2.886-2.394,6.992-1.353,10.156.052,5.383,2.394,9.989,2.811,14.928-1.041,4.384-3.436,9.545-2.447,13.652.416,6.493,4.581,12.931,3.956,19.979,1.51,3.108-1.093,7.27-3.7,9.712-.208,2.5,3.488.222,7.5-2.442,10.567-1.332,1.562-3.441,2.5-4.884,3.956-2.331,2.29-7.991-.833-8.1,3.175-.222,8.849-7.436,17.126-1,26.7,8.713,13.013,6.549,16.345-9.934,18.375-3.663.468-6.937-1.093-10.1-2.551-4.162-1.926-6.771-.833-9.545,2.707-6.882,8.745-9.934,18.687-12.154,28.994-2.5,11.5-7.159,21.082-21.088,23.424-2.22.364-3.663,1.353-3.552,3.436.832,12.961-6.271,25.558-2,38.78,1.165,3.644,1.554,7.548,4.218,10.671,3.274,3.9,1.165,5.153-3,5.726-8.879,1.2-13.319-2.342-12.709-10.775,1.165-15.772-2-31.076-5.217-46.432a9.107,9.107,0,0,0-1.5-2.5c-.555.416-1.5.729-1.609,1.249-4.5,14.991-16.038,28.265-12.32,45.235.943,4.216,1.332,8.381,5.106,11.764s2.442,5.674-2.886,6.142c-10.322.937-13.1-2.082-13.042-12.024.056-18.635-.388-37.271-2.83-55.8-.666-5.153-3.441-6.715-8.435-4.945-7.6,2.759-15.206,5.674-22.753,8.537a42.072,42.072,0,0,1-26.416,1.145c-2.886-.781-5.716-4.841-8.713-1.874-4.051,3.956-10.267,6.247-11.377,12.6-.333,1.822.666,4.737-2.5,4.841-2.719.1-1.665-2.759-2.386-4.216-.777-1.458-1.831-2.707-3.774-2.238-1.887.469-2.22,2.03-2.5,3.592-.388,1.926-.111,4.945-2.664,5-3,.1-1.72-3.123-2.553-4.841-2.886-5.934-9.878-5.83-15.039-7.5-3.052-.989-3.552,4.893-3.94,7.964-2,15.044,3.052,28.682,10.1,41.851,1.054,1.926,3.94,3.9,2.109,6.038-2.5,2.915-6.6,1.926-10.045,1.718-2.22-.1-4.162-.208-5.106-3.436-3-10.046-6.882-19.833-10.489-29.723a10.682,10.682,0,0,0-2.331-3.9c.166,10.515-1.609,21.342,5.661,30.66,1.887,2.394,1.387,3.175-1.72,3.9-10.267,2.5-16.26-2.29-15.927-12.129.444-14.575.721-29.2-3.163-43.517-.888-3.279-.055-6.038,1.5-8.8,3.5-6.194,3.5-12.493,1.665-19.312C134.013,251.851,125.466,233.841,124.689,213.9Z" transform="translate(-114.558 -174.607)" fill="#3b3b3b"/>
      </g>
    </g>
    <g id="OGexJI_1_" transform="translate(-1475.219 491.897)">
      <g id="Grupo_4" data-name="Grupo 4">
        <path id="Caminho_25" data-name="Caminho 25" d="M69.67,399.658c1.725,6.249,3.066,12.262,1.852,18.511a44.392,44.392,0,0,0-.575,12.675,19.537,19.537,0,0,1-.894,8.135c-1.405,4.421.575,8.312,5.11,10.317a2.593,2.593,0,0,0,2.683.118c.83-.59,1.341-.354,2.108-.059,1.6.59,2.747-.236,1.98-1.592-1.916-3.419-.83-7.015-1.277-10.494a21.97,21.97,0,0,1,1.469-10.906,19.339,19.339,0,0,0,1.533-8.489,17.314,17.314,0,0,1,2.108-9.2c.192-.413.319-1.061.958-.884.255.059.511.648.575,1a4,4,0,0,1-.511,3.714C84.425,415.1,85,418.051,85.319,421c.255,2.181.894,4.363,1.277,6.544.383,2.3.83,4.657-.511,6.9a1.408,1.408,0,0,0-.255.943c1.405,4.775.894,10.435,6.962,13.088,1.341.59,2.746,1.828,3.577-.531.192-.472.511-.236.83-.236,2.427.295,2.81-.118,2.108-2.358a66.89,66.89,0,0,1-2.683-11.2,17.4,17.4,0,0,1,.894-9.55,36.134,36.134,0,0,0,3.194-11.437c.192-2.83,1.916-4.48,4.854-5.306a16.732,16.732,0,0,1,8.176-.354,67,67,0,0,0,10.922,2c1.916.118,3.385,1.651,2.938,3.36-1.277,4.952-.255,9.9.064,14.856a41.875,41.875,0,0,1-1.277,13.205,7.375,7.375,0,0,0,1.214,6.367c1.469,2.122,3,2.476,5.493,1.474.383-.177.639,0,1.022.118,2.746.825,4.343-.295,3.641-2.889a64.907,64.907,0,0,1-1.022-7.782,18.647,18.647,0,0,1,1.469-9.491c1.6-3.891,3.257-7.723,3.321-12.026,0-2.417.958-2.771,3.257-1.651.128.059.255.177.383.177,3.321-.177,2.555,1.945,2.491,3.655-.255,5.129.447,10.2,0,15.328-.192,2.063-.511,4.127-.894,6.19-.7,3.6.383,5.424,3.9,7.015.766.354,1.6.766,2.236.177.83-.766,1.533-.472,2.363-.118a2.582,2.582,0,0,0,2.683-.118c.83-.707.575-1.592.383-2.476-.447-1.768-.958-3.537-1.341-5.306a19.739,19.739,0,0,1,.255-10.376,18.4,18.4,0,0,0,.958-5.542c-.128-8.077,2.683-15.74,3.577-23.7a27.4,27.4,0,0,0-.894-9.373c-.766-3.242-1.15-6.6-1.6-9.963a2.434,2.434,0,0,1,1.405-2.712,3,3,0,0,0,1.788-2.771,16.211,16.211,0,0,1,3.13-8.666c1.916-2.653,1.661-5.6,1.6-8.607-.064-3.3.128-3.419,3.641-3.419a30.016,30.016,0,0,0,3.257-.059c5.046-.413,8.3-4.068,7.92-8.784-.192-2.653-1.725-3.537-4.279-2.3a76.81,76.81,0,0,1-8.687,4.127c-1.98.707-3.321.648-4.216-1.356a5.024,5.024,0,0,0-2.746-2.24c-5.812-2.535-11.561-1.945-17.373.059a4.617,4.617,0,0,0-2.938,3.537c-.255,1.238-.958,1.415-2.172,1.179a20.683,20.683,0,0,1-5.685-1.945,15.141,15.141,0,0,0-8.239-1.533c-2.3.236-2.81,1-1.916,2.948,2.81,6.308,7.665,8.725,14.691,7.251.511-.118,1.15-.472,1.6.118a1.517,1.517,0,0,1-.064,1.71c-1.661,3.125-3.96,5.306-7.984,5.836-7.218,1-14.435,1.474-21.653,2.417a113.3,113.3,0,0,1-14.818.295,40.527,40.527,0,0,0-18.459,3.95c-4.982,2.417-7.6,6.072-7.729,11.26-.064,1.474-.064,2.948-.128,4.422-.064,4.186-1.405,8.018-4.918,10.847-7.09,5.659-9.709,13.205-10.667,21.4-.575,4.657,1.725,7.782,6.643,9.02a5.346,5.346,0,0,0,2.172.118,1.255,1.255,0,0,0,1.086-.59c.192-.472-.192-.766-.575-.943-1.788-.766-2.172-2.24-2.108-3.891a15.653,15.653,0,0,0-1.277-5.07,9.275,9.275,0,0,1,1.916-9.315C63.922,404.433,66.988,402.31,69.67,399.658Z" transform="translate(-53.552 -342.148)" fill="#3b3b3b"/>
      </g>
    </g>
    <g id="_51091608132cbc81bba4d57a058e6a50" data-name="51091608132cbc81bba4d57a058e6a50" transform="translate(-1410.969 359.89)">
      <g id="Grupo_5" data-name="Grupo 5" transform="translate(0)">
        <path id="Caminho_26" data-name="Caminho 26" d="M52.315-420.4c-1,1.065-.333,2.134,2.331,3.931,4.064,2.733,9.2,7.664,9.2,8.93,0,1.933-9.529,3.4-18.725,2.933-6.2-.333-8.331-.2-11.128.732-3.267,1.133-3.465,1.133-6.664-.266-5.2-2.2-6.129-3.665-6.6-9.6-.4-5.465-1.2-6.33-3.131-3.4a12.741,12.741,0,0,0-1.467,11.128c1.6,5.663,4.533,9.128,10.2,11.928,5.663,2.933,5.4,3.931-1.133,3.931-5.132,0-8.6,1.4-12.6,5-3.264,2.928-3.4,4.326-.732,6.593,2.331,1.933,5.4,2.933,10.529,3.532,1.865.2,3.465.6,3.465.865,0,.534-4.863,7.531-7.065,10.2-1.4,1.667-1.6,2.6-1.6,7.4,0,6.129.868,8.062,3.8,8.6a28.56,28.56,0,0,1,5,1.532,9.515,9.515,0,0,0,6.664.466c3.4-.732,3.6-.667,5.932,1.133,2,1.6,3.2,1.933,8.13,2.332l5.8.466,3.733,7.2c5,9.862,8.062,14.392,13.46,20.123,3.6,3.73,5.53,6.664,8.729,12.926,5.4,10.727,10.8,19.191,14.528,23.057l3.066,3.131-.4,5.4a31.008,31.008,0,0,0,.933,11.193c1.266,5.132,1.4,7,1,15.794-.266,5.465-.732,11.928-1.133,14.327-.333,2.4-.933,6.33-1.2,8.8-.466,3.665-1,5-2.665,6.864a9.478,9.478,0,0,0-2.066,3.267,4.092,4.092,0,0,1-1.4,2.131c-1.732,1.6-3.931,5.8-3.931,7.531,0,1.467.732,1.8,5.731,2.4,3.264.4,8.062-.2,13.593-1.664,2.464-.667,2.733-.933,3.733-4.53,1.065-3.465,1.065-3.931,0-5.663-1-1.8-1-2,.333-3.931a9.691,9.691,0,0,1,3.665-2.933,7.227,7.227,0,0,0,2.266-1.266,28.433,28.433,0,0,0-1.8-3.733l-1.732-3.4.4-15.393c.266-10.662.732-16.526,1.4-18.792a46.01,46.01,0,0,0,1.2-5.333c.2-1.933.333-2,4.4-2.532a46.894,46.894,0,0,0,8.529-2.066l4.332-1.6,1.532,2.464a41.932,41.932,0,0,1,3.131,6.663,26.549,26.549,0,0,0,4.332,7.33c2.131,2.4,3.733,5.731,7.463,15.127,4.731,11.928,4.8,12.129,4.8,18.258,0,7.531-.868,9.6-6.731,16.325a50.291,50.291,0,0,0-5.663,7.8l-1.6,3.131,2.066,1.667c3.332,2.8,6.33,3.332,13.194,2.464,7.862-1,9.4-1.6,9.4-3.6a17.726,17.726,0,0,1,1-4.465,23.2,23.2,0,0,0,1-6.265c.068-3.866.868-5.663,3.532-7.729a4.54,4.54,0,0,0,1.065-6.132c-.667-1.266-3.066-9.328-7.664-26.188a86.3,86.3,0,0,1-2.266-11.993,55.237,55.237,0,0,0-1.865-9.662,49.917,49.917,0,0,1-1.664-6l-.466-2.331,9.862-.068c8.729,0,10.462-.2,15.794-1.865,3.332-1,8.4-2.865,11.329-4.132,2.933-1.334,5.8-2.532,6.4-2.733.6-.133,4.4,1.6,8.464,3.931,6.129,3.465,7.531,4.53,8,6.129.735,2.733,2,2.933,2.865.466.933-2.665,1.8-2.6,3,.333,1.2,2.866,2.467,2.665,2.933-.4.266-1.865.732-2.331,2.532-2.8,1.865-.531,2.532-.333,4.2,1.133,2.733,2.266,3.264,2.134,3.264-1,0-2.464.466-3.131,5.33-8,2.933-2.933,5.465-5.33,5.6-5.33a34.748,34.748,0,0,1,1.664,5.932c1.667,7.065,1.732,13.66.4,26.055-1.4,12.793-2.2,16.526-4.064,19.79a15.94,15.94,0,0,0-2,6.664c-.534,6.129-.732,6.463-4.931,11.128-5.663,6.265-7.263,9.862-5.064,11.663a15.9,15.9,0,0,0,4.666,1.467c4.332.867,10.261-.068,13.66-2.131,1.933-1.133,2.066-1.534,2.066-5.064,0-5.064,2.331-10.128,5.53-12.129a8.507,8.507,0,0,0,2.733-2.4c.2-.6-.068-3.2-.667-5.864-1.664-7.729-1.4-14.861,1-24.057,2.464-9.461,3.73-12.462,7.33-17.526,1.532-2.066,2.733-4.064,2.733-4.53a69.391,69.391,0,0,0-2.665-7.531c-1.467-3.665-2.665-7.8-2.665-9.128,0-2.4,2.4-15.393,3.066-16.458.2-.266,1.334,1.467,2.6,3.931,1.933,3.6,2.331,5.129,2.331,8.529,0,9.328,5.265,21.989,11.193,26.855,3.6,3,3.532,2.266-.065-1.732A38.954,38.954,0,0,1,277.49-285.2c-.333-.933.4-.466,2.4,1.334,2.464,2.331,2.6,2.331.732.333-2.134-2.331-3.931-6-3-6,.333,0,1.2,1.133,2,2.532a15.428,15.428,0,0,0,2.933,3.866c1.532,1.266,1.532,1.266.466-.065-1.133-1.334-3.931-6.6-3.931-7.33,0-1.133,1.532.8,3,3.665a13.634,13.634,0,0,0,2.467,3.73c.4.266.266-.2-.333-1.133A6.133,6.133,0,0,1,283.088-287c0-.6-1.133-2.933-2.6-5.132-3.213-5-3.614-7.2-3.08-16.393.4-6.4.266-7.8-.933-11.329-2.2-6.129-3.665-18.857-3-25.987.333-3.332.534-11.993.534-19.324-.068-11.928-.2-13.66-1.4-16.325a22.924,22.924,0,0,0-2.865-4.6c-1.865-1.933-7.528-4.6-10.662-5a31.962,31.962,0,0,1-5.265-1.334,26.091,26.091,0,0,0-7.463-1.065c-9.2,0-30.785,3.665-47.911,8.062-13.593,3.532-20.256,3.931-55.639,3.465-24.122-.333-29.186-.2-36.649.732-5.932.8-9.529,1-11.329.534-2.8-.6-2.865-.735-2-4.6.466-1.933.266-2.266-1.732-3.532a39.491,39.491,0,0,0-6.463-2.665c-3.4-1.065-4.731-1.2-7.33-.6-7.13,1.467-8.062,1.532-8.529.333-.266-.8.266-1.865,1.532-3.264a32.269,32.269,0,0,0,3.066-3.8c2.733-4,.2-13.395-4.4-16.727C65.176-418.272,53.581-421.669,52.315-420.4Zm217.163,40.645c1.2,2.865,1.8,11.595,1.133,16.924-.534,4.264-.6,4.131-1.4-6-.6-7.331-1.2-11.061-2.134-12.861l-1.2-2.6,1.334,1.266A9.944,9.944,0,0,1,269.478-379.758Z" transform="translate(-9.996 420.676)" fill="#3b3b3b"/>
      </g>
    </g>
    <line id="Linha_1" data-name="Linha 1" x2="926.628" transform="translate(-1885.516 639.799)" fill="none" stroke="#40a06a" stroke-width="25"/>
    <text id="FARMANAGER" transform="translate(-1829.848 819.975)" fill="#33658a" font-size="163" font-family="FjallaOne-Regular, Fjalla One" letter-spacing="-0.021em"><tspan x="0" y="0">FARMANAGER</tspan></text>
    <text id="SUA_CRIAÇÃO_É_NOSSA_ORGANIZAÇÃO" data-name="SUA CRIAÇÃO É NOSSA ORGANIZAÇÃO" transform="translate(-1959 918.293)" fill="#40a06a" font-size="61" font-family="Raleway" letter-spacing="-0.05em"><tspan x="0" y="0">SUA CRIAÇÃO É NOSSA ORGANIZAÇÃO</tspan></text>
  </g>
</svg>
